<?xml version="1.0" encoding="UTF-8" standalone="no"?>
<svg width="154px" height="154px" viewBox="0 0 154 154" version="1.1" xmlns="http://www.w3.org/2000/svg" xmlns:xlink="http://www.w3.org/1999/xlink">
    <!-- Generator: Sketch 3.8.3 (29802) - http://www.bohemiancoding.com/sketch -->
    <title>team leader collection regular</title>
    <desc>Created with Sketch.</desc>
    <defs></defs>
    <g id="Page-1" stroke="none" stroke-width="1" fill="none" fill-rule="evenodd">
        <g id="team-leader-collection-regular" transform="translate(2.000000, 2.000000)">
            <g id="Group-3-Copy" stroke-width="4" stroke="#FFFFFF">
                <circle id="Oval-1-Copy-3" cx="75" cy="75" r="75"></circle>
            </g>
            <g id="Page-1" transform="translate(40.000000, 40.000000)" stroke="#FEFEFE" stroke-width="2" stroke-linecap="round" stroke-linejoin="round">
                <path d="M62.7586207,0 L22.9310345,0 C18.2651724,0 14.4827586,3.78241379 14.4827586,8.44827586 L14.4827586,50.6896552" id="Stroke-1"></path>
                <path d="M55.5172414,7.24137931 L70,7.24137931 C70,3.24172414 66.7582759,0 62.7586207,0 C58.7601724,0 55.5172414,3.24172414 55.5172414,7.24137931 L55.5172414,60.3448276 C55.5172414,65.6768966 51.1941379,70 45.862069,70 C40.53,70 36.2068966,65.6768966 36.2068966,60.3448276 C36.2068966,55.0115517 40.53,50.6896552 45.862069,50.6896552 L9.65517241,50.6896552 C4.32310345,50.6896552 0,55.0115517 0,60.3448276 C0,65.6768966 4.32310345,70 9.65517241,70 L45.862069,70" id="Stroke-3"></path>
                <path d="M24.137931,41.0344828 L44.6551724,41.0344828" id="Stroke-5"></path>
                <path d="M24.137931,31.3793103 L44.6551724,31.3793103" id="Stroke-7"></path>
                <path d="M24.137931,21.7241379 L44.6551724,21.7241379" id="Stroke-9"></path>
                <path d="M24.137931,12.0689655 L44.6551724,12.0689655" id="Stroke-11"></path>
            </g>
        </g>
    </g>
</svg>